<?xml version="1.0" encoding="UTF-8" standalone="no"?>
<!-- Created with Inkscape (http://www.inkscape.org/) -->

<svg
   xmlns:dc="http://purl.org/dc/elements/1.1/"
   xmlns:cc="http://creativecommons.org/ns#"
   xmlns:rdf="http://www.w3.org/1999/02/22-rdf-syntax-ns#"
   xmlns:svg="http://www.w3.org/2000/svg"
   xmlns="http://www.w3.org/2000/svg"
   xmlns:sodipodi="http://sodipodi.sourceforge.net/DTD/sodipodi-0.dtd"
   xmlns:inkscape="http://www.inkscape.org/namespaces/inkscape"
   version="1.1"
   id="svg2"
   xml:space="preserve"
   width="13.933333"
   height="13.933333"
   viewBox="0 0 13.933333 13.933333"
   sodipodi:docname="email.svg"
   inkscape:version="0.92.2 (5c3e80d, 2017-08-06)"><metadata
     id="metadata8"><rdf:RDF><cc:Work
         rdf:about=""><dc:format>image/svg+xml</dc:format><dc:type
           rdf:resource="http://purl.org/dc/dcmitype/StillImage" /><dc:title></dc:title></cc:Work></rdf:RDF></metadata><defs
     id="defs6"><clipPath
       clipPathUnits="userSpaceOnUse"
       id="clipPath18"><path
         d="M 0,10.45 H 10.45 V 0 H 0 Z"
         id="path16"
         inkscape:connector-curvature="0" /></clipPath></defs><sodipodi:namedview
     pagecolor="#ffffff"
     bordercolor="#666666"
     borderopacity="1"
     objecttolerance="10"
     gridtolerance="10"
     guidetolerance="10"
     inkscape:pageopacity="0"
     inkscape:pageshadow="2"
     inkscape:window-width="640"
     inkscape:window-height="480"
     id="namedview4"
     showgrid="false"
     inkscape:zoom="16.937799"
     inkscape:cx="6.9666667"
     inkscape:cy="6.9666667"
     inkscape:window-x="0"
     inkscape:window-y="0"
     inkscape:window-maximized="0"
     inkscape:current-layer="g10" /><g
     id="g10"
     inkscape:groupmode="layer"
     inkscape:label="@"
     transform="matrix(1.3333333,0,0,-1.3333333,0,13.933333)"><g
       id="g12"><g
         id="g14"
         clip-path="url(#clipPath18)"><g
           id="g20"
           transform="translate(6.2373,6.7298)"><path
             d="m 0,0 c -0.118,0.029 -0.268,0.059 -0.461,0.059 -0.984,0 -1.758,-0.968 -1.758,-2.115 0,-0.566 0.253,-0.923 0.744,-0.923 0.552,0 1.133,0.7 1.267,1.564 z M 1.326,-6.152 C 0.433,-6.554 -0.342,-6.689 -1.4,-6.689 c -2.472,0 -4.647,1.772 -4.647,4.693 0,3.038 2.204,5.675 5.571,5.675 2.622,0 4.498,-1.802 4.498,-4.305 0,-2.174 -1.221,-3.544 -2.83,-3.544 -0.7,0 -1.207,0.356 -1.281,1.146 H -0.118 C -0.581,-3.784 -1.25,-4.17 -2.04,-4.17 c -0.969,0 -1.668,0.714 -1.668,1.936 0,1.817 1.34,3.47 3.485,3.47 0.656,0 1.401,-0.163 1.773,-0.372 L 1.103,-1.892 c -0.149,-0.879 -0.044,-1.281 0.373,-1.296 0.64,-0.015 1.444,0.805 1.444,2.518 0,1.936 -1.251,3.441 -3.56,3.441 -2.279,0 -4.276,-1.788 -4.276,-4.633 0,-2.488 1.595,-3.903 3.814,-3.903 0.76,0 1.564,0.164 2.161,0.476 z"
             style="fill:#56af32;fill-opacity:1;fill-rule:nonzero;stroke:none"
             id="path22"
             inkscape:connector-curvature="0" /></g></g></g></g></svg>