<?xml version="1.0" encoding="UTF-8" standalone="no"?>
<!-- Created with Inkscape (http://www.inkscape.org/) -->

<svg
   xmlns:dc="http://purl.org/dc/elements/1.1/"
   xmlns:cc="http://creativecommons.org/ns#"
   xmlns:rdf="http://www.w3.org/1999/02/22-rdf-syntax-ns#"
   xmlns:svg="http://www.w3.org/2000/svg"
   xmlns="http://www.w3.org/2000/svg"
   xmlns:sodipodi="http://sodipodi.sourceforge.net/DTD/sodipodi-0.dtd"
   xmlns:inkscape="http://www.inkscape.org/namespaces/inkscape"
   version="1.1"
   id="svg2"
   xml:space="preserve"
   width="13.933333"
   height="13.933333"
   viewBox="0 0 13.933333 13.933333"
   sodipodi:docname="Schoen.svg"
   inkscape:version="0.92.2 (5c3e80d, 2017-08-06)"><metadata
     id="metadata8"><rdf:RDF><cc:Work
         rdf:about=""><dc:format>image/svg+xml</dc:format><dc:type
           rdf:resource="http://purl.org/dc/dcmitype/StillImage" /><dc:title></dc:title></cc:Work></rdf:RDF></metadata><defs
     id="defs6"><clipPath
       clipPathUnits="userSpaceOnUse"
       id="clipPath18"><path
         d="M 0,10.45 H 10.45 V 0 H 0 Z"
         id="path16"
         inkscape:connector-curvature="0" /></clipPath></defs><sodipodi:namedview
     pagecolor="#ffffff"
     bordercolor="#666666"
     borderopacity="1"
     objecttolerance="10"
     gridtolerance="10"
     guidetolerance="10"
     inkscape:pageopacity="0"
     inkscape:pageshadow="2"
     inkscape:window-width="640"
     inkscape:window-height="480"
     id="namedview4"
     showgrid="false"
     inkscape:zoom="16.937799"
     inkscape:cx="6.9666667"
     inkscape:cy="6.9666667"
     inkscape:window-x="0"
     inkscape:window-y="0"
     inkscape:window-maximized="0"
     inkscape:current-layer="g10" /><g
     id="g10"
     inkscape:groupmode="layer"
     inkscape:label="Schoen"
     transform="matrix(1.3333333,0,0,-1.3333333,0,13.933333)"><g
       id="g12"><g
         id="g14"
         clip-path="url(#clipPath18)"><g
           id="g20"
           transform="translate(10.4434,2.0594)"><path
             d="m 0,0 c -0.02,0.174 -0.13,0.624 -0.159,0.684 -0.03,0.06 -0.127,0.161 -0.163,0.165 -0.004,0 -0.009,0 -0.014,-0.001 -0.001,0 -0.003,-0.001 -0.004,-0.001 -0.003,0 -0.006,0 -0.01,-0.001 C -0.351,0.845 -0.353,0.844 -0.354,0.844 -0.356,0.843 -0.359,0.842 -0.361,0.84 -0.362,0.84 -0.365,0.839 -0.366,0.838 -0.368,0.837 -0.37,0.836 -0.373,0.835 V 0.834 C -0.386,0.827 -0.393,0.82 -0.394,0.818 -0.479,0.884 -0.686,1.039 -0.774,1.056 -0.796,1.06 -0.825,1.062 -0.859,1.063 L -0.862,1.066 -0.865,1.064 C -1.013,1.071 -1.246,1.062 -1.3,1.057 -1.366,1.05 -1.539,1.012 -1.539,1.012 h 0.004 c -0.029,-0.006 -0.05,-0.01 -0.05,-0.01 0,0 0.025,-0.004 0.059,-0.008 -0.187,-0.011 -0.514,0 -0.636,0.074 -0.149,0.089 -0.439,0.196 -0.494,0.165 -0.028,-0.015 -0.057,-0.034 -0.072,-0.056 -0.026,0.01 -0.055,0.021 -0.085,0.034 0,10e-4 0,0.002 -10e-4,0.003 C -2.817,1.22 -2.82,1.225 -2.824,1.229 -2.844,1.258 -2.88,1.286 -2.903,1.283 -2.913,1.282 -2.92,1.275 -2.924,1.261 -2.963,1.279 -3.003,1.298 -3.043,1.318 l -0.016,0.008 c -0.002,10e-4 -0.003,0.002 -0.004,0.003 0.023,-0.012 0.049,0.029 0.037,0.037 L -3.077,1.398 C -3.086,1.403 -3.133,1.399 -3.142,1.395 L -3.18,1.389 c -0.003,10e-4 -0.005,0.002 -0.007,0.004 -0.062,0.084 -0.112,0.15 -0.116,0.152 -0.013,0.009 -0.102,0.083 -0.15,0.08 -0.003,0 -0.007,-0.003 -0.007,-0.007 L -3.459,1.583 C -3.46,1.581 -3.46,1.58 -3.46,1.579 l 10e-4,-0.037 c -0.134,0.076 -0.272,0.159 -0.41,0.244 -0.002,10e-4 -0.009,0.006 -0.013,0.007 -10e-4,0.001 -10e-4,0.001 -10e-4,0.002 0.018,0.014 0.021,0.043 0,0.059 h -10e-4 c -0.012,0.01 -0.027,0.014 -0.042,0.012 h -10e-4 c -0.012,0.02 -0.021,0.035 -0.025,0.042 -0.002,0.003 -0.003,0.005 -0.003,0.005 -0.003,0.004 -0.006,0.01 -0.015,0.016 -0.028,0.023 -0.088,0.049 -0.172,0.067 -0.002,0 -0.016,-0.004 -0.017,-0.007 0,0 -0.002,-0.007 -0.006,-0.016 -0.148,0.096 -0.292,0.192 -0.423,0.283 -0.007,0.004 -0.016,0.01 -0.021,0.013 0,10e-4 0,10e-4 0,10e-4 -0.003,0.004 -0.006,0.009 -0.008,0.012 l 0.029,0.005 c 0.007,0.006 0.011,0.016 0.004,0.022 L -4.601,2.325 C -4.606,2.329 -4.62,2.339 -4.624,2.334 L -4.648,2.335 C -4.658,2.352 -4.664,2.362 -4.665,2.363 -4.671,2.371 -4.759,2.47 -4.819,2.461 H -4.821 L -4.845,2.438 C -4.904,2.481 -4.958,2.522 -5.007,2.56 l -0.016,0.013 c 10e-4,0.002 0.01,0.013 0.003,0.018 -0.007,0.007 -0.027,0.008 -0.036,0.007 0,0.001 -0.001,0.001 -0.001,0.001 0.058,0.031 0.05,0.077 0.016,0.137 -0.013,0.023 -0.033,0.045 -0.059,0.068 l 0.002,0.001 c 0.003,0.003 0.005,0.006 0.008,0.009 -0.008,0.059 -0.039,0.1 -0.104,0.108 C -5.198,2.917 -5.202,2.914 -5.206,2.909 -5.209,2.906 -5.212,2.903 -5.216,2.9 -5.26,2.938 -5.307,2.979 -5.349,3.029 -5.365,3.049 -5.38,3.072 -5.396,3.1 c 0.004,0.005 0.008,0.012 0.012,0.021 0.001,10e-4 0.002,10e-4 0.004,0.002 0.018,0.028 0.088,0.139 -0.046,0.183 -0.003,10e-4 -0.007,0.002 -0.011,0.003 0.001,10e-4 0.001,0.002 0.001,0.003 0.052,0.047 0.011,0.129 -0.042,0.141 -0.013,-0.007 -0.025,-0.013 -0.039,-0.019 -0.022,0.098 -0.033,0.194 -0.03,0.265 0.002,0.026 0,0.054 -0.003,0.085 0.033,0.047 0.058,0.131 -0.006,0.142 -0.001,10e-4 -0.004,10e-4 -0.005,10e-4 L -5.577,3.922 c -0.002,0.006 -0.003,0.012 -0.005,0.019 0.004,0.004 0.01,0.014 0.014,0.026 0.002,0 0.003,10e-4 0.005,10e-4 v 10e-4 c 0.008,0.01 0.056,0.077 -0.03,0.148 -0.012,-0.005 -0.026,-0.009 -0.04,-0.013 -0.03,0.087 -0.063,0.167 -0.088,0.228 0,0 -0.038,0.101 -0.07,0.215 0.016,0.004 0.031,0.007 0.045,0.01 v 10e-4 c 0.005,0.004 0.033,0.025 0.048,0.056 C -5.67,4.649 -5.64,4.712 -5.727,4.781 -5.758,4.771 -5.789,4.761 -5.821,4.752 -5.825,4.75 -5.828,4.75 -5.832,4.748 c -0.001,0.023 -0.001,0.044 0,0.061 0.019,0.128 -0.045,0.44 -0.12,0.65 -0.015,0.048 -0.041,0.069 -0.072,0.073 -0.017,0.039 -0.033,0.076 -0.047,0.111 L -6.153,5.827 C -6.236,6.01 -6.733,5.771 -6.907,5.643 -7.082,5.515 -7.395,5.038 -7.468,4.928 -7.491,4.893 -7.507,4.83 -7.516,4.752 -7.53,4.752 -7.545,4.753 -7.561,4.753 -7.937,4.763 -8.499,4.46 -8.618,4.415 -8.737,4.368 -9.271,3.992 -9.417,3.923 -9.565,3.855 -9.896,3.763 -9.905,3.708 -9.908,3.694 -9.884,3.648 -9.848,3.59 -9.866,3.55 -9.866,3.513 -9.859,3.492 -9.85,3.464 -9.846,3.255 -9.846,3.131 v 0 -0.015 C -9.865,3.126 -9.879,3.121 -9.883,3.102 -9.889,3.079 -9.881,2.965 -9.859,2.865 -9.837,2.764 -9.878,2.488 -9.892,2.435 -9.897,2.414 -9.901,2.393 -9.907,2.369 -9.944,2.209 -9.985,1.992 -10.024,1.759 L -10.027,1.75 c -0.028,-0.003 -0.044,-0.005 -0.044,-0.005 -0.017,-0.058 -0.032,-0.133 -0.045,-0.222 -0.057,-0.369 -0.091,-0.961 -0.098,-1.361 -0.015,-0.01 -0.052,-0.034 -0.083,-0.058 v 0 c -0.022,-0.006 -0.052,-0.042 -0.054,-0.053 -0.003,-0.027 0.005,-0.334 0.029,-0.372 0.024,-0.037 0.038,-0.105 0.009,-0.153 -0.029,-0.047 -0.123,-0.306 -0.13,-0.456 -0.003,-0.066 0.011,-0.141 0.031,-0.208 0.001,-0.004 0.001,-0.007 0.003,-0.009 0.002,-0.006 0.003,-0.012 0.005,-0.018 0.002,-0.004 0.003,-0.008 0.004,-0.012 0.002,-0.006 0.004,-0.01 0.005,-0.016 0.002,-0.004 0.003,-0.008 0.005,-0.011 0.001,-0.006 0.003,-0.011 0.005,-0.016 0.002,-0.004 0.003,-0.007 0.004,-0.01 0.002,-0.004 0.004,-0.01 0.006,-0.014 10e-4,-0.004 0.002,-0.007 0.004,-0.01 0.001,-0.004 0.003,-0.009 0.005,-0.014 0.002,-0.002 0.002,-0.004 0.004,-0.007 10e-4,-0.004 0.004,-0.008 0.005,-0.012 10e-4,-0.003 0.003,-0.005 0.003,-0.007 0.002,-0.004 0.004,-0.008 0.005,-0.011 10e-4,-0.002 0.002,-0.004 0.003,-0.006 0.003,-0.003 0.005,-0.008 0.007,-0.012 0.031,-0.057 0.098,-0.175 0.131,-0.188 0,-0.06 0.019,-0.146 0.043,-0.179 0.009,-0.014 0.021,-0.034 0.036,-0.051 0.027,-0.036 0.062,-0.07 0.088,-0.036 0.059,0.026 0.108,0.033 0.129,0.014 0.019,-0.019 0.006,-0.128 0.019,-0.148 0.014,-0.021 0.132,-0.096 0.155,-0.096 h 0.006 c 0.024,0 0.091,0.017 0.15,0.053 0.039,0.023 0.101,0.03 0.137,0.032 0.005,-0.036 0.016,-0.083 0.03,-0.105 0,0 0,-10e-4 10e-4,-0.002 l 10e-4,-10e-4 c 10e-4,-0.002 0.002,-0.004 0.004,-0.004 0.001,-0.002 0.003,-0.003 0.004,-0.004 0.033,-0.019 0.371,-0.022 0.371,-0.022 0,0 0.026,0.013 0.033,0.057 0.006,0.045 0.017,0.104 0.033,0.107 0.015,0.003 0.081,0 0.112,-0.072 0.03,-0.072 0.036,-0.092 0.045,-0.092 h 0.282 c 0,0 0.045,0.013 0.051,0.066 0.007,0.054 0.006,0.12 0.023,0.141 0.017,0.021 0.05,0.046 0.096,0.041 0.044,-0.005 0.182,0.027 0.214,-0.087 0.033,-0.114 0.07,-0.129 0.097,-0.132 0.028,-0.004 0.318,-0.011 0.324,-0.007 0.007,0.003 0.052,0.008 0.056,0.039 -0.021,0.061 0.077,0.225 0.17,0.078 0.026,-0.076 0.041,-0.085 0.11,-0.083 0.07,10e-4 0.23,0 0.246,0 0.015,0 0.08,0.007 0.079,0.086 -0.002,0.079 -0.043,0.206 0.07,0.261 0.114,0.055 0.216,0.093 0.295,0.139 0.08,0.047 0.221,0.06 0.284,0.06 0.064,0 0.102,0.021 0.139,0.037 0.036,0.016 0.138,0.034 0.17,0.017 0.034,-0.017 0.052,-0.051 0.095,-0.024 0.043,0.028 0.186,0.05 0.245,0.019 0.059,-0.031 0.069,-0.049 0.1,-0.059 0.032,-0.01 0.084,0.041 0.103,0.031 0.02,-0.01 0.164,-0.054 0.204,-0.078 0.039,-0.021 0.072,-0.036 0.128,-0.044 0.055,-0.008 0.134,-0.006 0.183,-0.119 0.048,-0.111 0.08,-0.173 0.175,-0.203 0.01,-0.003 0.02,-0.005 0.03,-0.006 10e-4,-10e-4 0.002,-10e-4 0.003,-10e-4 0.01,-0.003 0.019,-0.003 0.028,-0.004 0.001,-0.001 0.003,-0.001 0.004,-0.001 0.009,-10e-4 0.018,-10e-4 0.027,-10e-4 h 0.004 0.026 v 0 c 0.047,0.003 0.087,0.011 0.107,0.012 0.018,10e-4 0.04,-0.007 0.059,-0.017 0.004,-0.023 0.008,-0.042 0.008,-0.048 0.004,-0.02 0.118,-0.057 0.187,-0.064 0.069,-0.007 0.253,-0.069 0.309,0.021 0.078,0.067 0.124,0.132 0.214,0.161 0.095,0.007 0.165,0 0.193,-0.089 0.027,-0.089 0.022,-0.117 0.129,-0.113 0.106,0.003 0.23,-0.006 0.274,0.063 0.054,0.068 0.093,0.155 0.119,0.12 0.002,-0.003 0.004,-0.006 0.005,-0.008 0.033,-0.073 0.019,-0.122 0.066,-0.121 0.046,0.002 0.343,0.024 0.359,0.095 0.018,0.07 -0.008,0.17 0.04,0.181 0.049,0.011 0.177,-0.024 0.227,0.025 0.033,0.031 0.06,0.072 0.085,0.049 0.006,-0.005 0.012,-0.014 0.015,-0.026 0.029,-0.069 0.046,-0.14 0.1,-0.138 0.053,0.002 0.177,0.041 0.216,0.062 0.04,0.021 0.04,0.09 0.051,0.112 0.024,0 0.056,-0.014 0.086,-0.028 0.03,-0.013 0.116,-0.017 0.141,0.001 0.029,0.017 0.264,0.092 0.266,0.153 0.002,0.059 0.003,0.14 0.043,0.145 0.04,0.005 0.077,0.065 0.101,0.099 0.008,0.01 0.02,0.018 0.035,0.022 0.03,0.009 0.071,-10e-4 0.099,-0.04 0.04,-0.056 0.015,-0.08 0.095,-0.08 0.004,0 0.009,0 0.013,10e-4 0.073,0.003 0.194,0.089 0.204,0.126 0.001,0.047 0.014,0.107 0.048,0.131 0.01,-0.025 0.004,-0.09 0.095,-0.084 0.002,0 0.005,0 0.008,0.001 0.034,0.012 0.248,0.145 0.255,0.195 0.007,0.052 -0.004,0.124 0.062,0.121 0.068,-0.003 0.052,-0.021 0.074,-0.028 0.019,-0.006 0.082,0.052 0.1,0.085 0.019,0.032 0.088,0.11 0.09,0.138 0.002,0.027 0,0.051 0,0.051 0,0 0.029,0.009 0.063,0.055 0.032,0.047 0.054,0.125 0.073,0.182 C -0.017,-0.313 0.021,-0.175 0,0"
             style="fill:#56af32;fill-opacity:1;fill-rule:nonzero;stroke:none"
             id="path22"
             inkscape:connector-curvature="0" /></g></g></g></g></svg>