<?xml version="1.0" encoding="UTF-8" standalone="no"?>
<!-- Created with Inkscape (http://www.inkscape.org/) -->

<svg
   xmlns:dc="http://purl.org/dc/elements/1.1/"
   xmlns:cc="http://creativecommons.org/ns#"
   xmlns:rdf="http://www.w3.org/1999/02/22-rdf-syntax-ns#"
   xmlns:svg="http://www.w3.org/2000/svg"
   xmlns="http://www.w3.org/2000/svg"
   xmlns:sodipodi="http://sodipodi.sourceforge.net/DTD/sodipodi-0.dtd"
   xmlns:inkscape="http://www.inkscape.org/namespaces/inkscape"
   version="1.1"
   id="svg2"
   xml:space="preserve"
   width="13.933333"
   height="13.933333"
   viewBox="0 0 13.933333 13.933333"
   sodipodi:docname="Stempel.svg"
   inkscape:version="0.92.2 (5c3e80d, 2017-08-06)"><metadata
     id="metadata8"><rdf:RDF><cc:Work
         rdf:about=""><dc:format>image/svg+xml</dc:format><dc:type
           rdf:resource="http://purl.org/dc/dcmitype/StillImage" /><dc:title></dc:title></cc:Work></rdf:RDF></metadata><defs
     id="defs6"><clipPath
       clipPathUnits="userSpaceOnUse"
       id="clipPath22"><path
         d="m 0.348,0.014 h 9.753 V 10.437 H 0.348 Z"
         id="path20"
         inkscape:connector-curvature="0" /></clipPath></defs><sodipodi:namedview
     pagecolor="#ffffff"
     bordercolor="#666666"
     borderopacity="1"
     objecttolerance="10"
     gridtolerance="10"
     guidetolerance="10"
     inkscape:pageopacity="0"
     inkscape:pageshadow="2"
     inkscape:window-width="640"
     inkscape:window-height="480"
     id="namedview4"
     showgrid="false"
     inkscape:zoom="16.937799"
     inkscape:cx="6.9666667"
     inkscape:cy="6.9666667"
     inkscape:window-x="0"
     inkscape:window-y="0"
     inkscape:window-maximized="0"
     inkscape:current-layer="g10" /><g
     id="g10"
     inkscape:groupmode="layer"
     inkscape:label="Stempel"
     transform="matrix(1.3333333,0,0,-1.3333333,0,13.933333)"><g
       id="g12"
       transform="translate(0.3483,3.807)"><path
         d="m 0,0 v -0.753 l 0.008,-0.398 4.359,-2.643 h 0.16 L 9.572,-0.639 9.022,0.679 4.78,2.466 Z"
         style="fill:#56af32;fill-opacity:1;fill-rule:nonzero;stroke:none"
         id="path14"
         inkscape:connector-curvature="0" /></g><g
       id="g16"><g
         id="g18"
         clip-path="url(#clipPath22)"><g
           id="g24"
           transform="translate(4.7954,-0.0354)"><path
             d="M 0,0 5.125,3.204 4.575,4.522 0.333,6.308 -4.462,3.835 -4.439,2.692 Z"
             style="fill:none;stroke:#ffffff;stroke-width:0.118;stroke-linecap:butt;stroke-linejoin:miter;stroke-miterlimit:10;stroke-dasharray:none;stroke-opacity:1"
             id="path26"
             inkscape:connector-curvature="0" /></g><g
           id="g28"
           transform="translate(6.1777,5.2439)"><path
             d="m 0,0 c -0.818,0.868 -0.542,1.688 -0.501,1.76 0.041,0.072 0.051,0.183 0.051,0.183 0,0 0.94,0.86 0.542,2.031 -0.399,1.171 -1.33,1.489 -1.493,1.537 C -1.565,5.559 -2.025,5.654 -2.669,5.583 -3.307,5.481 -3.699,5.27 -3.833,5.181 -3.966,5.093 -4.705,4.549 -4.573,3.343 c 0.13,-1.208 1.388,-1.77 1.388,-1.77 0,0 0.057,-0.103 0.127,-0.159 0.07,-0.057 0.683,-0.757 0.289,-1.789 -0.395,-1.032 0.984,-1.282 1.629,-1.179 0.031,0.004 0.107,0.016 0.115,0.016 C -0.373,-1.466 0.818,-0.868 0,0"
             style="fill:#56af32;fill-opacity:1;fill-rule:nonzero;stroke:none"
             id="path30"
             inkscape:connector-curvature="0" /></g><g
           id="g32"
           transform="translate(6.1777,5.2439)"><path
             d="m 0,0 c -0.818,0.868 -0.542,1.688 -0.501,1.76 0.041,0.072 0.051,0.183 0.051,0.183 0,0 0.94,0.86 0.542,2.031 -0.399,1.171 -1.33,1.489 -1.493,1.537 C -1.565,5.559 -2.025,5.654 -2.669,5.583 -3.307,5.481 -3.699,5.27 -3.833,5.181 -3.966,5.093 -4.705,4.549 -4.573,3.343 c 0.13,-1.208 1.388,-1.77 1.388,-1.77 0,0 0.057,-0.103 0.127,-0.159 0.07,-0.057 0.683,-0.757 0.289,-1.789 -0.395,-1.032 0.984,-1.282 1.629,-1.179 0.031,0.004 0.107,0.016 0.115,0.016 C -0.373,-1.466 0.818,-0.868 0,0 Z"
             style="fill:none;stroke:#ffffff;stroke-width:1.07500005;stroke-linecap:butt;stroke-linejoin:miter;stroke-miterlimit:10;stroke-dasharray:none;stroke-opacity:1"
             id="path34"
             inkscape:connector-curvature="0" /></g></g></g></g></svg>