<?xml version="1.0" encoding="UTF-8" standalone="no"?>
<!-- Created with Inkscape (http://www.inkscape.org/) -->

<svg
   xmlns:dc="http://purl.org/dc/elements/1.1/"
   xmlns:cc="http://creativecommons.org/ns#"
   xmlns:rdf="http://www.w3.org/1999/02/22-rdf-syntax-ns#"
   xmlns:svg="http://www.w3.org/2000/svg"
   xmlns="http://www.w3.org/2000/svg"
   xmlns:sodipodi="http://sodipodi.sourceforge.net/DTD/sodipodi-0.dtd"
   xmlns:inkscape="http://www.inkscape.org/namespaces/inkscape"
   version="1.1"
   id="svg2"
   xml:space="preserve"
   width="746.66669"
   height="1280"
   viewBox="0 0 746.66669 1280"
   sodipodi:docname="logopoppetjealleen.svg"
   inkscape:version="0.92.2 (5c3e80d, 2017-08-06)"><metadata
     id="metadata8"><rdf:RDF><cc:Work
         rdf:about=""><dc:format>image/svg+xml</dc:format><dc:type
           rdf:resource="http://purl.org/dc/dcmitype/StillImage" /><dc:title></dc:title></cc:Work></rdf:RDF></metadata><defs
     id="defs6"><clipPath
       clipPathUnits="userSpaceOnUse"
       id="clipPath18"><path
         d="M 0,960 H 560 V 0 H 0 Z"
         id="path16"
         inkscape:connector-curvature="0" /></clipPath></defs><sodipodi:namedview
     pagecolor="#ffffff"
     bordercolor="#666666"
     borderopacity="1"
     objecttolerance="10"
     gridtolerance="10"
     guidetolerance="10"
     inkscape:pageopacity="0"
     inkscape:pageshadow="2"
     inkscape:window-width="809"
     inkscape:window-height="480"
     id="namedview4"
     showgrid="false"
     inkscape:zoom="0.184375"
     inkscape:cx="373.33334"
     inkscape:cy="640"
     inkscape:window-x="0"
     inkscape:window-y="0"
     inkscape:window-maximized="0"
     inkscape:current-layer="g10" /><g
     id="g10"
     inkscape:groupmode="layer"
     inkscape:label="logopoppetjealleen"
     transform="matrix(1.3333333,0,0,-1.3333333,0,1280)"><g
       id="g12"><g
         id="g14"
         clip-path="url(#clipPath18)"><g
           id="g20"
           transform="translate(422.7852,600.603)"><path
             d="M 0,0 C 0,0 10.666,-5.641 10.666,-34.725 10.666,-63.81 0,-78.067 0,-78.067 h -224.381 c 0,0 -7.693,11.888 -8.187,40.649 -0.496,28.761 8.187,37.418 8.187,37.418 z"
             style="fill:#ffffff;fill-opacity:1;fill-rule:nonzero;stroke:none"
             id="path22"
             inkscape:connector-curvature="0" /></g><g
           id="g24"
           transform="translate(422.7852,600.603)"><path
             d="M 0,0 C 0,0 10.666,-5.641 10.666,-34.725 10.666,-63.81 0,-78.067 0,-78.067 h -224.381 c 0,0 -7.693,11.888 -8.187,40.649 -0.496,28.761 8.187,37.418 8.187,37.418 z"
             style="fill:none;stroke:#1d1d1b;stroke-width:1.36500001;stroke-linecap:butt;stroke-linejoin:miter;stroke-miterlimit:4;stroke-dasharray:none;stroke-opacity:1"
             id="path26"
             inkscape:connector-curvature="0" /></g><g
           id="g28"
           transform="translate(390.3887,603.7129)"><path
             d="m 0,0 c 0,0 16.385,0 16.385,-16.386 v -187.439 c 0,0 0,-16.386 -16.385,-16.386 h -157.129 c 0,0 -16.386,0 -16.386,16.386 v 187.439 c 0,0 0,16.386 16.386,16.386 z"
             style="fill:#000000;fill-opacity:1;fill-rule:nonzero;stroke:none"
             id="path30"
             inkscape:connector-curvature="0" /></g><g
           id="g32"
           transform="translate(390.3887,603.7129)"><path
             d="m 0,0 c 0,0 16.385,0 16.385,-16.386 v -187.439 c 0,0 0,-16.386 -16.385,-16.386 h -157.129 c 0,0 -16.386,0 -16.386,16.386 v 187.439 c 0,0 0,16.386 16.386,16.386 z"
             style="fill:none;stroke:#1d1d1b;stroke-width:1.36500001;stroke-linecap:butt;stroke-linejoin:miter;stroke-miterlimit:4;stroke-dasharray:none;stroke-opacity:1"
             id="path34"
             inkscape:connector-curvature="0" /></g><g
           id="g36"
           transform="translate(256.8325,487.6089)"><path
             d="m 0,0 c 0,0 -16.876,-29.596 -37.971,-51.792 -21.095,-22.199 -46.409,-60.251 -48.519,-69.764 -2.108,-9.514 -14.765,-6.342 -20.039,-3.171 -5.274,3.171 -13.712,24.311 -3.163,46.508 10.546,22.198 27.422,35.939 39.024,53.908 11.602,17.969 23.205,54.964 32.697,67.649 9.493,12.684 22.149,30.654 45.354,33.824 23.204,3.171 89.654,3.171 99.146,-3.17 9.492,-6.343 27.424,-43.339 31.642,-67.649 4.219,-24.312 4.219,-57.08 -3.166,-73.992 -7.38,-16.912 -15.82,-33.824 -20.039,-35.937 -4.218,-2.116 -45.353,21.139 -45.353,21.139 l 10.547,63.421 z"
             style="fill:#ffffff;fill-opacity:1;fill-rule:nonzero;stroke:none"
             id="path38"
             inkscape:connector-curvature="0" /></g><g
           id="g40"
           transform="translate(256.8325,487.6089)"><path
             d="m 0,0 c 0,0 -16.876,-29.596 -37.971,-51.792 -21.095,-22.199 -46.409,-60.251 -48.519,-69.764 -2.108,-9.514 -14.765,-6.342 -20.039,-3.171 -5.274,3.171 -13.712,24.311 -3.163,46.508 10.546,22.198 27.422,35.939 39.024,53.908 11.602,17.969 23.205,54.964 32.697,67.649 9.493,12.684 22.149,30.654 45.354,33.824 23.204,3.171 89.654,3.171 99.146,-3.17 9.492,-6.343 27.424,-43.339 31.642,-67.649 4.219,-24.312 4.219,-57.08 -3.166,-73.992 -7.38,-16.912 -15.82,-33.824 -20.039,-35.937 -4.218,-2.116 -45.353,21.139 -45.353,21.139 l 10.547,63.421 z"
             style="fill:none;stroke:#1d1d1b;stroke-width:1.36500001;stroke-linecap:butt;stroke-linejoin:miter;stroke-miterlimit:4;stroke-dasharray:none;stroke-opacity:1"
             id="path42"
             inkscape:connector-curvature="0" /></g><g
           id="g44"
           transform="translate(292.4531,311.3066)"><path
             d="m 0,0 c 0,0 47.791,-17.582 71.688,-14.285 23.894,3.296 38.015,15.384 41.275,21.976 3.258,6.594 4.562,12.968 4.562,12.968 L 104.707,33.186 73.316,31.868 Z"
             style="fill:#ffffff;fill-opacity:1;fill-rule:nonzero;stroke:none"
             id="path46"
             inkscape:connector-curvature="0" /></g><g
           id="g48"
           transform="translate(257.5342,426.5635)"><path
             d="m 0,0 c 0,0 -21.551,24.803 -23.166,59.31 -1.617,34.506 21.549,64.701 36.097,72.789 14.547,8.087 23.166,10.782 23.166,10.782 0,0 -16.163,-10.244 -22.089,-37.203 C 8.081,78.72 4.31,71.71 1.617,46.908 -1.078,22.107 0,0 0,0"
             style="fill:#1d1d1b;fill-opacity:1;fill-rule:nonzero;stroke:none"
             id="path50"
             inkscape:connector-curvature="0" /></g><g
           id="g52"
           transform="translate(292.4531,311.3066)"><path
             d="m 0,0 c 0,0 47.791,-17.582 71.688,-14.285 23.894,3.296 38.015,15.384 41.275,21.976 3.258,6.594 4.562,12.968 4.562,12.968 L 104.707,33.186 73.316,31.868 Z"
             style="fill:none;stroke:#1d1d1b;stroke-width:1.36500001;stroke-linecap:butt;stroke-linejoin:miter;stroke-miterlimit:4;stroke-dasharray:none;stroke-opacity:1"
             id="path54"
             inkscape:connector-curvature="0" /></g><path
           d="m 351.379,252.855 h -33.125 v 74.934 h 33.125 z"
           style="fill:#ffffff;fill-opacity:1;fill-rule:nonzero;stroke:#000000;stroke-width:1;stroke-linecap:butt;stroke-linejoin:miter;stroke-miterlimit:10;stroke-dasharray:none;stroke-opacity:1"
           id="path56"
           inkscape:connector-curvature="0" /><g
           id="g58"
           transform="translate(257.5342,426.5635)"><path
             d="m 0,0 c 0,0 -21.551,24.803 -23.166,59.31 -1.617,34.506 21.549,64.701 36.097,72.789 14.547,8.087 23.166,10.782 23.166,10.782 0,0 -16.163,-10.244 -22.089,-37.203 C 8.081,78.72 4.31,71.71 1.617,46.908 -1.078,22.107 0,0 0,0 Z"
             style="fill:none;stroke:#1d1d1b;stroke-width:1.36500001;stroke-linecap:butt;stroke-linejoin:miter;stroke-miterlimit:4;stroke-dasharray:none;stroke-opacity:1"
             id="path60"
             inkscape:connector-curvature="0" /></g><path
           d="m 281.352,249.721 h -33.124 v 74.933 h 33.124 z"
           style="fill:#ffffff;fill-opacity:1;fill-rule:nonzero;stroke:none"
           id="path62"
           inkscape:connector-curvature="0" /><path
           d="m 281.352,249.721 h -33.124 v 74.933 h 33.124 z"
           style="fill:none;stroke:#1d1d1b;stroke-width:1.36500001;stroke-linecap:butt;stroke-linejoin:miter;stroke-miterlimit:4;stroke-dasharray:none;stroke-opacity:1"
           id="path64"
           inkscape:connector-curvature="0" /><g
           id="g66"
           transform="translate(182.0259,319.209)"><path
             d="m 0,0 c 14.867,12.645 70.084,62.172 73.27,83.248 3.186,21.077 0,70.606 6.373,92.735 6.371,22.13 10.618,42.152 11.68,53.743 1.062,11.591 20.176,23.184 42.476,22.129 22.3,-1.053 45.661,-8.43 48.846,-20.022 3.187,-11.591 2.126,-69.55 -1.062,-85.356 -3.185,-15.808 -8.494,-59.014 18.053,-93.788 26.547,-34.776 28.672,-41.099 28.672,-41.099 0,0 -19.115,6.323 -40.351,-8.43 C 166.718,-11.592 128.49,-31.615 93.446,-31.615 36.104,-31.615 0,0 0,0"
             style="fill:#ffffff;fill-opacity:1;fill-rule:nonzero;stroke:none"
             id="path68"
             inkscape:connector-curvature="0" /></g><g
           id="g70"
           transform="translate(182.0259,319.209)"><path
             d="m 0,0 c 14.867,12.645 70.084,62.172 73.27,83.248 3.186,21.077 0,70.606 6.373,92.735 6.371,22.13 10.618,42.152 11.68,53.743 1.062,11.591 20.176,23.184 42.476,22.129 22.3,-1.053 45.661,-8.43 48.846,-20.022 3.187,-11.591 2.126,-69.55 -1.062,-85.356 -3.185,-15.808 -8.494,-59.014 18.053,-93.788 26.547,-34.776 28.672,-41.099 28.672,-41.099 0,0 -19.115,6.323 -40.351,-8.43 C 166.718,-11.592 128.49,-31.615 93.446,-31.615 36.104,-31.615 0,0 0,0 Z"
             style="fill:none;stroke:#1d1d1b;stroke-width:1.36500001;stroke-linecap:butt;stroke-linejoin:miter;stroke-miterlimit:4;stroke-dasharray:none;stroke-opacity:1"
             id="path72"
             inkscape:connector-curvature="0" /></g><g
           id="g74"
           transform="translate(361.3379,426.3701)"><path
             d="m 0,0 c 7.305,16.204 18.543,46.453 18.543,72.38 0,25.926 -5.619,44.832 -17.982,57.796 -12.363,12.962 -17.418,12.962 -17.418,12.962 0,0 2.248,-16.742 6.742,-35.65 4.496,-18.904 2.81,-36.728 2.81,-59.955 C -7.305,24.307 0,0 0,0"
             style="fill:#010000;fill-opacity:1;fill-rule:nonzero;stroke:none"
             id="path76"
             inkscape:connector-curvature="0" /></g><g
           id="g78"
           transform="translate(361.3379,426.3701)"><path
             d="m 0,0 c 7.305,16.204 18.543,46.453 18.543,72.38 0,25.926 -5.619,44.832 -17.982,57.796 -12.363,12.962 -17.418,12.962 -17.418,12.962 0,0 2.248,-16.742 6.742,-35.65 4.496,-18.904 2.81,-36.728 2.81,-59.955 C -7.305,24.307 0,0 0,0 Z"
             style="fill:none;stroke:#1d1d1b;stroke-width:1.36500001;stroke-linecap:butt;stroke-linejoin:miter;stroke-miterlimit:4;stroke-dasharray:none;stroke-opacity:1"
             id="path80"
             inkscape:connector-curvature="0" /></g><g
           id="g82"
           transform="translate(368.3486,669.5811)"><path
             d="m 0,0 c 1.69,-3.791 3.548,-4.308 -0.675,-6.376 -3.414,-1.396 -26.512,-13.751 -39.848,-19.027 -19.498,-7.716 -56.03,-3.528 -57.423,2.753 -1.393,6.282 -7.988,-1.792 3.11,13.685 7.472,10.419 16.505,19.823 25.816,22.131 23.14,5.73 58.707,-1.102 58.707,-1.102 0,0 8.457,-7.91 10.313,-12.064"
             style="fill:#000000;fill-opacity:1;fill-rule:nonzero;stroke:none"
             id="path84"
             inkscape:connector-curvature="0" /></g><g
           id="g86"
           transform="translate(368.3486,669.5811)"><path
             d="m 0,0 c 1.69,-3.791 3.548,-4.308 -0.675,-6.376 -3.414,-1.396 -26.512,-13.751 -39.848,-19.027 -19.498,-7.716 -56.03,-3.528 -57.423,2.753 -1.393,6.282 -7.988,-1.792 3.11,13.685 7.472,10.419 16.505,19.823 25.816,22.131 23.14,5.73 58.707,-1.102 58.707,-1.102 0,0 8.457,-7.91 10.313,-12.064 z"
             style="fill:none;stroke:#1d1d1b;stroke-width:1.36500001;stroke-linecap:butt;stroke-linejoin:miter;stroke-miterlimit:4;stroke-dasharray:none;stroke-opacity:1"
             id="path88"
             inkscape:connector-curvature="0" /></g><g
           id="g90"
           transform="translate(314.4209,552.5439)"><path
             d="m 0,0 c -33.168,0 -60.267,30.439 -60.267,73.35 0,42.911 28.704,67.213 61.865,67.874 42.723,0.85 49.969,-27.736 51.673,-32.835 C 55.136,102.812 49.677,90.065 50.075,85.01 50.354,81.476 61.747,57.839 61.796,56.851 61.935,54.098 49.002,46.862 49.863,44.311 56.47,24.76 31.038,0 0,0"
             style="fill:#ffffff;fill-opacity:1;fill-rule:nonzero;stroke:none"
             id="path92"
             inkscape:connector-curvature="0" /></g><g
           id="g94"
           transform="translate(314.4209,552.5439)"><path
             d="m 0,0 c -33.168,0 -60.267,30.439 -60.267,73.35 0,42.911 28.704,67.213 61.865,67.874 42.723,0.85 49.969,-27.736 51.673,-32.835 C 55.136,102.812 49.677,90.065 50.075,85.01 50.354,81.476 61.747,57.839 61.796,56.851 61.935,54.098 49.002,46.862 49.863,44.311 56.47,24.76 31.038,0 0,0 Z"
             style="fill:none;stroke:#1d1d1b;stroke-width:1.36500001;stroke-linecap:butt;stroke-linejoin:miter;stroke-miterlimit:4;stroke-dasharray:none;stroke-opacity:1"
             id="path96"
             inkscape:connector-curvature="0" /></g><g
           id="g98"
           transform="translate(254.1616,628.4736)"><path
             d="m 0,0 c 0,0 -27.778,136.397 -26.709,142.091 1.067,5.694 5.875,26.86 25.641,35.455 19.765,8.596 39.637,3.009 44.873,1.075 5.235,-1.934 71.579,-139.136 71.579,-139.136 0,0 -34.446,13.902 -67.845,1.212 C 14.137,28.004 0,0 0,0"
             style="fill:#8f401e;fill-opacity:1;fill-rule:nonzero;stroke:none"
             id="path100"
             inkscape:connector-curvature="0" /></g><g
           id="g102"
           transform="translate(254.1616,628.4736)"><path
             d="m 0,0 c 0,0 -27.778,136.397 -26.709,142.091 1.067,5.694 5.875,26.86 25.641,35.455 19.765,8.596 39.637,3.009 44.873,1.075 5.235,-1.934 71.579,-139.136 71.579,-139.136 0,0 -34.446,13.902 -67.845,1.212 C 14.137,28.004 0,0 0,0 Z"
             style="fill:none;stroke:#1d1d1b;stroke-width:1.36500001;stroke-linecap:butt;stroke-linejoin:miter;stroke-miterlimit:4;stroke-dasharray:none;stroke-opacity:1"
             id="path104"
             inkscape:connector-curvature="0" /></g><g
           id="g106"
           transform="translate(340.5352,206.9717)"><path
             d="m 0,0 c -18.797,0 -37.729,3.952 -38.816,9.023 -0.705,3.272 -1.131,6.673 -1.131,10.18 0,23.706 17.885,42.924 39.947,42.924 22.063,0 39.947,-19.218 39.947,-42.924 0,-3.085 -0.021,-6.166 -0.877,-8.994 C 37.174,3.952 19.191,0 0,0"
             style="fill:#000000;fill-opacity:1;fill-rule:nonzero;stroke:none"
             id="path108"
             inkscape:connector-curvature="0" /></g><g
           id="g110"
           transform="translate(340.5352,206.9717)"><path
             d="m 0,0 c -18.797,0 -37.729,3.952 -38.816,9.023 -0.705,3.272 -1.131,6.673 -1.131,10.18 0,23.706 17.885,42.924 39.947,42.924 22.063,0 39.947,-19.218 39.947,-42.924 0,-3.085 -0.021,-6.166 -0.877,-8.994 C 37.174,3.952 19.191,0 0,0 Z"
             style="fill:none;stroke:#000000;stroke-width:2.73099995;stroke-linecap:butt;stroke-linejoin:miter;stroke-miterlimit:4;stroke-dasharray:none;stroke-opacity:1"
             id="path112"
             inkscape:connector-curvature="0" /></g><g
           id="g114"
           transform="translate(259.0127,206.9717)"><path
             d="m 0,0 c -18.798,0 -37.729,3.952 -38.817,9.023 -0.703,3.272 -1.13,6.673 -1.13,10.18 0,23.706 17.885,42.924 39.947,42.924 22.063,0 39.948,-19.218 39.948,-42.924 0,-3.085 -0.021,-6.166 -0.877,-8.994 C 37.173,3.952 19.192,0 0,0"
             style="fill:#000000;fill-opacity:1;fill-rule:nonzero;stroke:none"
             id="path116"
             inkscape:connector-curvature="0" /></g><g
           id="g118"
           transform="translate(259.0127,206.9717)"><path
             d="m 0,0 c -18.798,0 -37.729,3.952 -38.817,9.023 -0.703,3.272 -1.13,6.673 -1.13,10.18 0,23.706 17.885,42.924 39.947,42.924 22.063,0 39.948,-19.218 39.948,-42.924 0,-3.085 -0.021,-6.166 -0.877,-8.994 C 37.173,3.952 19.192,0 0,0 Z"
             style="fill:none;stroke:#000000;stroke-width:2.73099995;stroke-linecap:butt;stroke-linejoin:miter;stroke-miterlimit:4;stroke-dasharray:none;stroke-opacity:1"
             id="path120"
             inkscape:connector-curvature="0" /></g><g
           id="g122"
           transform="translate(139.4526,614.2642)"><path
             d="M 0,0 55.23,-406.451"
             style="fill:none;stroke:#1d1d1b;stroke-width:5.46199989;stroke-linecap:butt;stroke-linejoin:miter;stroke-miterlimit:4;stroke-dasharray:none;stroke-opacity:1"
             id="path124"
             inkscape:connector-curvature="0" /></g></g></g></g></svg>