<?xml version="1.0" encoding="UTF-8" standalone="no"?>
<!-- Created with Inkscape (http://www.inkscape.org/) -->

<svg
   xmlns:dc="http://purl.org/dc/elements/1.1/"
   xmlns:cc="http://creativecommons.org/ns#"
   xmlns:rdf="http://www.w3.org/1999/02/22-rdf-syntax-ns#"
   xmlns:svg="http://www.w3.org/2000/svg"
   xmlns="http://www.w3.org/2000/svg"
   xmlns:sodipodi="http://sodipodi.sourceforge.net/DTD/sodipodi-0.dtd"
   xmlns:inkscape="http://www.inkscape.org/namespaces/inkscape"
   version="1.1"
   id="svg2"
   xml:space="preserve"
   width="13.933333"
   height="13.933333"
   viewBox="0 0 13.933333 13.933333"
   sodipodi:docname="Food.svg"
   inkscape:version="0.92.2 (5c3e80d, 2017-08-06)"><metadata
     id="metadata8"><rdf:RDF><cc:Work
         rdf:about=""><dc:format>image/svg+xml</dc:format><dc:type
           rdf:resource="http://purl.org/dc/dcmitype/StillImage" /><dc:title></dc:title></cc:Work></rdf:RDF></metadata><defs
     id="defs6"><clipPath
       clipPathUnits="userSpaceOnUse"
       id="clipPath18"><path
         d="M 0,10.45 H 10.45 V 0 H 0 Z"
         id="path16"
         inkscape:connector-curvature="0" /></clipPath></defs><sodipodi:namedview
     pagecolor="#ffffff"
     bordercolor="#666666"
     borderopacity="1"
     objecttolerance="10"
     gridtolerance="10"
     guidetolerance="10"
     inkscape:pageopacity="0"
     inkscape:pageshadow="2"
     inkscape:window-width="640"
     inkscape:window-height="480"
     id="namedview4"
     showgrid="false"
     inkscape:zoom="16.937799"
     inkscape:cx="6.9666667"
     inkscape:cy="6.9666667"
     inkscape:window-x="0"
     inkscape:window-y="0"
     inkscape:window-maximized="0"
     inkscape:current-layer="g10" /><g
     id="g10"
     inkscape:groupmode="layer"
     inkscape:label="Food"
     transform="matrix(1.3333333,0,0,-1.3333333,0,13.933333)"><g
       id="g12"><g
         id="g14"
         clip-path="url(#clipPath18)"><g
           id="g20"
           transform="translate(7.3936,10.45)"><path
             d="m 0,0 c -0.694,0 -1.258,-0.462 -1.258,-1.029 v -3.419 c 0,-0.455 0.355,-0.842 0.868,-0.976 v -4.391 c 0,-0.35 0.336,-0.635 0.749,-0.635 h 0.15 c 0.413,0 0.75,0.285 0.75,0.635 v 8.786 C 1.259,-0.462 0.693,0 0,0"
             style="fill:#56af32;fill-opacity:1;fill-rule:nonzero;stroke:none"
             id="path22"
             inkscape:connector-curvature="0" /></g><g
           id="g24"
           transform="translate(4.9165,10.45)"><path
             d="m 0,0 c -0.29,0 -0.517,-0.19 -0.517,-0.434 l 0.005,-1.654 0.002,-0.286 c -0.004,-0.015 -0.059,-0.059 -0.139,-0.059 -0.079,0 -0.126,0.037 -0.131,0.049 l -0.003,1.95 C -0.783,-0.19 -1.011,0 -1.3,0 -1.59,0 -1.818,-0.19 -1.818,-0.434 v -1.945 c -0.012,-0.02 -0.057,-0.054 -0.132,-0.054 -0.082,0 -0.107,0.021 -0.133,0.042 l -10e-4,1.957 C -2.084,-0.19 -2.311,0 -2.601,0 -2.891,0 -3.119,-0.19 -3.119,-0.434 v -2.28 c 0.075,-0.437 0.448,-0.834 0.964,-1.038 v -6.063 c 0,-0.356 0.353,-0.635 0.804,-0.635 h 0.167 c 0.451,0 0.804,0.279 0.804,0.635 v 6.09 c 0.459,0.2 0.803,0.552 0.898,0.977 v 2.314 C 0.518,-0.19 0.291,0 0,0"
             style="fill:#56af32;fill-opacity:1;fill-rule:nonzero;stroke:none"
             id="path26"
             inkscape:connector-curvature="0" /></g></g></g></g></svg>