<?xml version="1.0" encoding="UTF-8" standalone="no"?>
<!-- Created with Inkscape (http://www.inkscape.org/) -->

<svg
   xmlns:dc="http://purl.org/dc/elements/1.1/"
   xmlns:cc="http://creativecommons.org/ns#"
   xmlns:rdf="http://www.w3.org/1999/02/22-rdf-syntax-ns#"
   xmlns:svg="http://www.w3.org/2000/svg"
   xmlns="http://www.w3.org/2000/svg"
   xmlns:sodipodi="http://sodipodi.sourceforge.net/DTD/sodipodi-0.dtd"
   xmlns:inkscape="http://www.inkscape.org/namespaces/inkscape"
   version="1.1"
   id="svg2"
   xml:space="preserve"
   width="13.933333"
   height="13.933333"
   viewBox="0 0 13.933333 13.933333"
   sodipodi:docname="Mosque.svg"
   inkscape:version="0.92.2 (5c3e80d, 2017-08-06)"><metadata
     id="metadata8"><rdf:RDF><cc:Work
         rdf:about=""><dc:format>image/svg+xml</dc:format><dc:type
           rdf:resource="http://purl.org/dc/dcmitype/StillImage" /><dc:title></dc:title></cc:Work></rdf:RDF></metadata><defs
     id="defs6"><clipPath
       clipPathUnits="userSpaceOnUse"
       id="clipPath22"><path
         d="M 0,10.45 H 10.45 V 0 H 0 Z"
         id="path20"
         inkscape:connector-curvature="0" /></clipPath></defs><sodipodi:namedview
     pagecolor="#ffffff"
     bordercolor="#666666"
     borderopacity="1"
     objecttolerance="10"
     gridtolerance="10"
     guidetolerance="10"
     inkscape:pageopacity="0"
     inkscape:pageshadow="2"
     inkscape:window-width="640"
     inkscape:window-height="480"
     id="namedview4"
     showgrid="false"
     inkscape:zoom="16.937799"
     inkscape:cx="6.9666667"
     inkscape:cy="6.9666667"
     inkscape:window-x="0"
     inkscape:window-y="0"
     inkscape:window-maximized="0"
     inkscape:current-layer="g10" /><g
     id="g10"
     inkscape:groupmode="layer"
     inkscape:label="Mosque"
     transform="matrix(1.3333333,0,0,-1.3333333,0,13.933333)"><g
       id="g12"
       transform="translate(9.2734,3.448)"><path
         d="m 0,0 -1.169,0.603 -1.159,-0.623 0.211,1.299 -0.95,0.909 1.299,0.201 0.573,1.185 0.592,-1.175 1.304,-0.178 -0.934,-0.926 z"
         style="fill:#56af32;fill-opacity:1;fill-rule:nonzero;stroke:none"
         id="path14"
         inkscape:connector-curvature="0" /></g><g
       id="g16"><g
         id="g18"
         clip-path="url(#clipPath22)"><g
           id="g24"
           transform="translate(7.3076,0.2791)"><path
             d="m 0,0 c 0.117,0 0.231,0.005 0.346,0.016 -0.561,-0.192 -1.16,-0.295 -1.787,-0.295 -2.978,0 -5.391,2.339 -5.391,5.223 0,2.889 2.413,5.227 5.391,5.227 0.627,0 1.226,-0.104 1.787,-0.295 C 0.231,9.887 0.117,9.892 0,9.892 -2.566,9.892 -4.65,7.676 -4.65,4.944 -4.65,2.213 -2.566,0 0,0"
             style="fill:#56af32;fill-opacity:1;fill-rule:nonzero;stroke:none"
             id="path26"
             inkscape:connector-curvature="0" /></g></g></g></g></svg>