<?xml version="1.0" encoding="UTF-8" standalone="no"?>
<!-- Created with Inkscape (http://www.inkscape.org/) -->

<svg
   xmlns:dc="http://purl.org/dc/elements/1.1/"
   xmlns:cc="http://creativecommons.org/ns#"
   xmlns:rdf="http://www.w3.org/1999/02/22-rdf-syntax-ns#"
   xmlns:svg="http://www.w3.org/2000/svg"
   xmlns="http://www.w3.org/2000/svg"
   xmlns:sodipodi="http://sodipodi.sourceforge.net/DTD/sodipodi-0.dtd"
   xmlns:inkscape="http://www.inkscape.org/namespaces/inkscape"
   version="1.1"
   id="svg2"
   xml:space="preserve"
   width="13.933333"
   height="13.933333"
   viewBox="0 0 13.933333 13.933333"
   sodipodi:docname="Slaapplek.svg"
   inkscape:version="0.92.2 (5c3e80d, 2017-08-06)"><metadata
     id="metadata8"><rdf:RDF><cc:Work
         rdf:about=""><dc:format>image/svg+xml</dc:format><dc:type
           rdf:resource="http://purl.org/dc/dcmitype/StillImage" /><dc:title></dc:title></cc:Work></rdf:RDF></metadata><defs
     id="defs6"><clipPath
       clipPathUnits="userSpaceOnUse"
       id="clipPath18"><path
         d="M 0,10.45 H 10.45 V 0 H 0 Z"
         id="path16"
         inkscape:connector-curvature="0" /></clipPath></defs><sodipodi:namedview
     pagecolor="#ffffff"
     bordercolor="#666666"
     borderopacity="1"
     objecttolerance="10"
     gridtolerance="10"
     guidetolerance="10"
     inkscape:pageopacity="0"
     inkscape:pageshadow="2"
     inkscape:window-width="640"
     inkscape:window-height="480"
     id="namedview4"
     showgrid="false"
     inkscape:zoom="16.937799"
     inkscape:cx="6.9666667"
     inkscape:cy="6.9666667"
     inkscape:window-x="0"
     inkscape:window-y="0"
     inkscape:window-maximized="0"
     inkscape:current-layer="g10" /><g
     id="g10"
     inkscape:groupmode="layer"
     inkscape:label="Slaapplek"
     transform="matrix(1.3333333,0,0,-1.3333333,0,13.933333)"><g
       id="g12"><g
         id="g14"
         clip-path="url(#clipPath18)"><g
           id="g20"
           transform="translate(9.9395,6.555)"><path
             d="m 0,0 v 0 c -0.281,0 -0.511,-0.23 -0.511,-0.511 v -0.628 c -0.112,0.077 -0.248,0.121 -0.393,0.121 h -4.533 c -0.386,0 -0.703,-0.315 -0.703,-0.702 0,-0.134 0.002,-0.254 0.004,-0.362 H -6.14 V -3.42 h 5.629 V -3.8 h -8.407 v 3.289 c 0,0.281 -0.23,0.511 -0.511,0.511 -0.28,0 -0.51,-0.23 -0.51,-0.511 v -5.533 c 0,-0.282 0.23,-0.511 0.51,-0.511 0.281,0 0.511,0.229 0.511,0.511 v 0.842 h 8.407 v -0.842 c 0,-0.282 0.23,-0.511 0.511,-0.511 0.281,0 0.511,0.229 0.511,0.511 v 5.533 C 0.511,-0.23 0.281,0 0,0"
             style="fill:#56af32;fill-opacity:1;fill-rule:nonzero;stroke:none"
             id="path22"
             inkscape:connector-curvature="0" /></g><g
           id="g24"
           transform="translate(3.457,4.1482)"><path
             d="m 0,0 c 0,-0.571 -0.463,-1.034 -1.034,-1.034 -0.571,0 -1.034,0.463 -1.034,1.034 0,0.571 0.463,1.034 1.034,1.034 C -0.463,1.034 0,0.571 0,0"
             style="fill:#56af32;fill-opacity:1;fill-rule:nonzero;stroke:none"
             id="path26"
             inkscape:connector-curvature="0" /></g></g></g></g></svg>