<?xml version="1.0" encoding="UTF-8" standalone="no"?>
<!-- Created with Inkscape (http://www.inkscape.org/) -->

<svg
   xmlns:dc="http://purl.org/dc/elements/1.1/"
   xmlns:cc="http://creativecommons.org/ns#"
   xmlns:rdf="http://www.w3.org/1999/02/22-rdf-syntax-ns#"
   xmlns:svg="http://www.w3.org/2000/svg"
   xmlns="http://www.w3.org/2000/svg"
   xmlns:sodipodi="http://sodipodi.sourceforge.net/DTD/sodipodi-0.dtd"
   xmlns:inkscape="http://www.inkscape.org/namespaces/inkscape"
   version="1.1"
   id="svg2"
   xml:space="preserve"
   width="188.97333"
   height="188.97333"
   viewBox="0 0 188.97333 188.97333"
   sodipodi:docname="Vector-pijl.svg"
   inkscape:version="0.92.2 (5c3e80d, 2017-08-06)"><metadata
     id="metadata8"><rdf:RDF><cc:Work
         rdf:about=""><dc:format>image/svg+xml</dc:format><dc:type
           rdf:resource="http://purl.org/dc/dcmitype/StillImage" /><dc:title></dc:title></cc:Work></rdf:RDF></metadata><defs
     id="defs6"><clipPath
       clipPathUnits="userSpaceOnUse"
       id="clipPath18"><path
         d="M 0,141.73 H 141.73 V 0 H 0 Z"
         id="path16"
         inkscape:connector-curvature="0" /></clipPath></defs><sodipodi:namedview
     pagecolor="#ffffff"
     bordercolor="#666666"
     borderopacity="1"
     objecttolerance="10"
     gridtolerance="10"
     guidetolerance="10"
     inkscape:pageopacity="0"
     inkscape:pageshadow="2"
     inkscape:window-width="640"
     inkscape:window-height="480"
     id="namedview4"
     showgrid="false"
     inkscape:zoom="1.2488535"
     inkscape:cx="94.486664"
     inkscape:cy="94.486664"
     inkscape:window-x="0"
     inkscape:window-y="0"
     inkscape:window-maximized="0"
     inkscape:current-layer="g10" /><g
     id="g10"
     inkscape:groupmode="layer"
     inkscape:label="Vector pijl"
     transform="matrix(1.3333333,0,0,-1.3333333,0,188.97333)"><g
       id="g12"><g
         id="g14"
         clip-path="url(#clipPath18)"><g
           id="g20"
           transform="translate(100.4434,69.6382)"><path
             d="m 0,0 21.723,16.671 -21.751,16.25 2.669,-3.574 c 2.524,-3.381 3.265,-6.201 3.481,-7.465 -1.481,0.107 -4.592,0.107 -11.176,0.107 -6.364,0 -10.138,1.789 -13.789,3.518 -0.803,0.381 -1.601,0.759 -2.42,1.117 -2.52,1.099 -5.708,2.223 -10.236,2.223 -0.373,0 -0.745,-0.01 -1.115,-0.029 -5.732,-0.3 -10.938,-2.794 -15.972,-5.206 -4.448,-2.13 -8.648,-4.142 -12.478,-4.142 -7.87,0 -10.553,3.487 -13.393,7.178 -0.913,1.187 -1.857,2.414 -2.986,3.543 l -1.103,1.103 V 15.833 l 0.188,-0.188 C -78.089,15.373 -71.65,9 -61.804,9 c 6.896,0 11.519,2.415 15.989,4.75 4.36,2.277 8.478,4.428 14.564,4.428 3.323,0 6.54,-1.303 10.264,-2.812 4.523,-1.833 9.65,-3.923 16.014,-3.865 8.807,0 9.656,-0.064 10.476,-0.126 C 5.739,11.356 5.978,11.338 6.378,11.321 6.238,9.963 5.174,7.311 2.467,3.485 Z"
             style="fill:#56af32;fill-opacity:1;fill-rule:nonzero;stroke:none"
             id="path22"
             inkscape:connector-curvature="0" /></g></g></g></g></svg>