<?xml version="1.0" encoding="UTF-8" standalone="no"?>
<!-- Created with Inkscape (http://www.inkscape.org/) -->

<svg
   xmlns:dc="http://purl.org/dc/elements/1.1/"
   xmlns:cc="http://creativecommons.org/ns#"
   xmlns:rdf="http://www.w3.org/1999/02/22-rdf-syntax-ns#"
   xmlns:svg="http://www.w3.org/2000/svg"
   xmlns="http://www.w3.org/2000/svg"
   xmlns:sodipodi="http://sodipodi.sourceforge.net/DTD/sodipodi-0.dtd"
   xmlns:inkscape="http://www.inkscape.org/namespaces/inkscape"
   version="1.1"
   id="svg2"
   xml:space="preserve"
   width="13.933333"
   height="13.933333"
   viewBox="0 0 13.933333 13.933333"
   sodipodi:docname="WWW-adres.svg"
   inkscape:version="0.92.2 (5c3e80d, 2017-08-06)"><metadata
     id="metadata8"><rdf:RDF><cc:Work
         rdf:about=""><dc:format>image/svg+xml</dc:format><dc:type
           rdf:resource="http://purl.org/dc/dcmitype/StillImage" /><dc:title></dc:title></cc:Work></rdf:RDF></metadata><defs
     id="defs6"><clipPath
       clipPathUnits="userSpaceOnUse"
       id="clipPath18"><path
         d="M 0,10.45 H 10.45 V 0 H 0 Z"
         id="path16"
         inkscape:connector-curvature="0" /></clipPath></defs><sodipodi:namedview
     pagecolor="#ffffff"
     bordercolor="#666666"
     borderopacity="1"
     objecttolerance="10"
     gridtolerance="10"
     guidetolerance="10"
     inkscape:pageopacity="0"
     inkscape:pageshadow="2"
     inkscape:window-width="640"
     inkscape:window-height="480"
     id="namedview4"
     showgrid="false"
     inkscape:zoom="16.937799"
     inkscape:cx="6.9666667"
     inkscape:cy="6.9666667"
     inkscape:window-x="0"
     inkscape:window-y="0"
     inkscape:window-maximized="0"
     inkscape:current-layer="g10" /><g
     id="g10"
     inkscape:groupmode="layer"
     inkscape:label="WWW adres"
     transform="matrix(1.3333333,0,0,-1.3333333,0,13.933333)"><g
       id="g12"><g
         id="g14"
         clip-path="url(#clipPath18)"><g
           id="g20"
           transform="translate(6.6494,1.2234)"><path
             d="M 0,0 C 0.254,0.537 0.441,1.214 0.562,1.956 H 2.294 C 1.795,1.052 0.985,0.352 0,0 m -5.144,1.956 h 1.735 c 0.119,-0.742 0.307,-1.419 0.56,-1.957 -0.985,0.353 -1.795,1.052 -2.295,1.957 m 2.296,6.048 C -3.1,7.471 -3.287,6.799 -3.407,6.062 h -1.729 c 0.501,0.898 1.307,1.593 2.288,1.942 m 1.424,0.263 c 0.294,0 0.756,-0.812 1.008,-2.205 h -2.017 c 0.252,1.393 0.714,2.205 1.009,2.205 M -5.69,4.001 c 0,0.385 0.067,0.75 0.163,1.105 h 2.004 c -0.03,-0.364 -0.046,-0.734 -0.046,-1.105 0,-0.364 0.016,-0.729 0.045,-1.087 H -5.532 C -5.625,3.263 -5.69,3.623 -5.69,4.001 m 3.127,-1.087 c -0.03,0.341 -0.05,0.7 -0.05,1.087 0,0.395 0.021,0.758 0.051,1.105 h 2.274 c 0.03,-0.347 0.052,-0.71 0.052,-1.105 0,-0.387 -0.021,-0.746 -0.05,-1.087 z m 1.139,-3.177 c -0.296,0 -0.761,0.818 -1.012,2.219 h 2.023 C -0.664,0.555 -1.129,-0.263 -1.424,-0.263 M 2.84,4.001 C 2.84,3.623 2.775,3.263 2.682,2.914 H 0.676 c 0.029,0.358 0.045,0.723 0.045,1.087 0,0.371 -0.017,0.741 -0.046,1.105 H 2.677 C 2.772,4.751 2.84,4.386 2.84,4.001 M 2.286,6.062 H 0.559 C 0.438,6.799 0.252,7.471 0,8.004 0.979,7.654 1.785,6.96 2.286,6.062 m -3.71,3.162 c -2.88,0 -5.222,-2.343 -5.222,-5.223 0,-2.879 2.342,-5.222 5.222,-5.222 2.879,0 5.222,2.343 5.222,5.222 0,2.88 -2.343,5.223 -5.222,5.223"
             style="fill:#56af32;fill-opacity:1;fill-rule:nonzero;stroke:none"
             id="path22"
             inkscape:connector-curvature="0" /></g></g></g></g></svg>